<svg width="23" height="18" viewBox="0 0 23 18" fill="none" xmlns="http://www.w3.org/2000/svg">
<path d="M20.799 3.91089H1.70497C1.32012 3.91089 0.951031 3.75298 0.678904 3.47168C0.406777 3.19038 0.253906 2.80871 0.253906 2.41089C0.253906 2.01306 0.406777 1.63165 0.678904 1.35034C0.951031 1.06904 1.32012 0.910889 1.70497 0.910889H20.8028C21.1877 0.910889 21.5568 1.06904 21.8289 1.35034C22.101 1.63165 22.2539 2.01306 22.2539 2.41089C22.2539 2.60821 22.2162 2.80359 22.1431 2.98584C22.0699 3.16809 21.9627 3.3338 21.8276 3.47314C21.6924 3.61248 21.532 3.72271 21.3555 3.79785C21.179 3.873 20.9899 3.91141 20.799 3.91089Z" fill="#E54813"/>
<path d="M20.799 10.9429H1.70497C1.32012 10.9429 0.951031 10.785 0.678904 10.5037C0.406777 10.2224 0.253906 9.8407 0.253906 9.44287C0.253906 9.04505 0.406777 8.66363 0.678904 8.38232C0.951031 8.10102 1.32012 7.94287 1.70497 7.94287H20.8028C21.1877 7.94287 21.5568 8.10102 21.8289 8.38232C22.101 8.66363 22.2539 9.04505 22.2539 9.44287C22.2539 9.64019 22.2162 9.83557 22.1431 10.0178C22.0699 10.2001 21.9627 10.3658 21.8276 10.5051C21.6924 10.6445 21.532 10.7547 21.3555 10.8298C21.179 10.905 20.9899 10.9434 20.799 10.9429V10.9429Z" fill="#E54813"/>
<path d="M20.799 17.9771H1.70497C1.32012 17.9771 0.951031 17.8189 0.678904 17.5376C0.406777 17.2563 0.253906 16.8749 0.253906 16.4771C0.253906 16.0792 0.406777 15.6976 0.678904 15.4163C0.951031 15.135 1.32012 14.9771 1.70497 14.9771H20.8028C21.1877 14.9771 21.5568 15.135 21.8289 15.4163C22.101 15.6976 22.2539 16.0792 22.2539 16.4771C22.2539 16.6744 22.2162 16.8698 22.1431 17.052C22.0699 17.2343 21.9627 17.3997 21.8276 17.5391C21.6924 17.6784 21.532 17.7889 21.3555 17.864C21.179 17.9392 20.9899 17.9776 20.799 17.9771V17.9771Z" fill="#E54813"/>
</svg>
