<svg width="22" height="21" viewBox="0 0 22 21" fill="none" xmlns="http://www.w3.org/2000/svg">
<g clip-path="url(#clip0)">
<path fill-rule="evenodd" clip-rule="evenodd" d="M19.417 21H19.5555C20.2038 21 20.8256 20.7447 21.284 20.2903C21.7424 19.8359 22 19.2196 22 18.5769V14.3123C22.0022 13.9916 21.9081 13.6774 21.7297 13.4098C21.5512 13.1423 21.2964 12.9335 20.9977 12.81L17.9259 11.5904C17.6309 11.4674 17.306 11.4332 16.9915 11.4921C16.6771 11.551 16.3871 11.7004 16.1577 11.9215L14.3896 13.6581C12.8492 13.3864 11.4304 12.6517 10.3256 11.5536C9.22073 10.4556 8.48331 9.04723 8.21331 7.51962L9.94886 5.78308C10.1745 5.55908 10.3287 5.27432 10.3925 4.96415C10.4562 4.65399 10.4266 4.3321 10.3074 4.03846L9.06886 1.01769C8.9481 0.717127 8.73908 0.459428 8.46886 0.277978C8.19865 0.0965286 7.87969 -0.000311683 7.55331 7.53633e-07H3.25925C3.19406 7.53633e-07 3.12915 0.00242464 3.06451 0.00727079C2.41816 0.0565753 1.81804 0.358358 1.39615 0.84624C0.974253 1.33412 0.765142 1.96814 0.814807 2.60885C1.13258 6.69577 3.40591 20.0873 19.417 21ZM2.94724 1.67594C3.04623 1.63564 3.15224 1.61507 3.25925 1.61539H7.56146L8.78368 4.66039L6.46961 6.97846L6.5185 7.36615C6.5185 7.43885 7.47998 14.4658 14.5689 15.3462L14.96 15.3946L17.2985 13.0927L20.3703 14.3123V18.5769L20.3687 18.627C20.3557 18.8408 20.2576 19.0407 20.0959 19.1827C19.9342 19.3248 19.7223 19.3974 19.5066 19.3846C5.22295 18.5769 2.81925 7.26923 2.44443 2.48769C2.4428 2.46562 2.44199 2.44327 2.44199 2.42066C2.44231 2.31459 2.4637 2.20962 2.50495 2.11175C2.54619 2.01388 2.60648 1.92502 2.68237 1.85024C2.75826 1.77546 2.84826 1.71624 2.94724 1.67594ZM21.1854 8.07693H19.5557C19.554 6.57796 18.9525 5.14087 17.8833 4.08094C16.814 3.02101 15.3642 2.42479 13.8521 2.42308V0.807694C15.7963 0.809832 17.6603 1.57638 19.0351 2.93916C20.4099 4.30195 21.1832 6.14966 21.1854 8.07693ZM17.9261 8.07693H16.2965C16.2958 7.43449 16.0381 6.81854 15.5798 6.36426C15.1215 5.90999 14.5002 5.65449 13.8521 5.65385V4.03847C14.9322 4.03975 15.9677 4.46564 16.7314 5.22272C17.4952 5.9798 17.9248 7.00626 17.9261 8.07693Z" fill="#E54813"/>
</g>
<defs>
<clipPath id="clip0">
<rect width="22" height="21" fill="white"/>
</clipPath>
</defs>
</svg>
