<svg width="21" height="20" viewBox="0 0 21 20" fill="none" xmlns="http://www.w3.org/2000/svg">
<path d="M6.06738 11.0269H17.5724L20.0485 2.28589H6.07947V0.737061H1.06445C0.931845 0.737061 0.804706 0.789533 0.710938 0.883301C0.617169 0.977069 0.564453 1.10445 0.564453 1.23706C0.564453 1.36967 0.617169 1.49681 0.710938 1.59058C0.804706 1.68434 0.931845 1.73706 1.06445 1.73706H5.07947V11.114L3.78748 16.5759H16.0325C16.1651 16.5759 16.2922 16.5232 16.386 16.4294C16.4798 16.3357 16.5325 16.2085 16.5325 16.0759C16.5325 15.9433 16.4798 15.8162 16.386 15.7224C16.2922 15.6286 16.1651 15.5759 16.0325 15.5759H5.05444L6.07043 11.2881L6.06738 11.0269Z" fill="#E54813"/>
<path d="M13.4446 17.564C13.1217 17.564 12.812 17.6922 12.5836 17.9204C12.3552 18.1486 12.2268 18.4581 12.2266 18.781C12.2266 19.104 12.3548 19.4139 12.5833 19.6423C12.8117 19.8708 13.1215 19.999 13.4446 19.999C13.7676 19.999 14.0774 19.8708 14.3058 19.6423C14.5342 19.4139 14.6626 19.104 14.6626 18.781C14.6623 18.4581 14.5338 18.1486 14.3054 17.9204C14.077 17.6922 13.7674 17.564 13.4446 17.564Z" fill="#E54813"/>
<path d="M6.79858 17.564C6.47582 17.564 6.16622 17.6922 5.93799 17.9204C5.70976 18.1486 5.58154 18.4582 5.58154 18.781C5.58141 18.9409 5.61285 19.0993 5.67395 19.2471C5.73505 19.3948 5.8246 19.529 5.93762 19.6421C6.05064 19.7552 6.18492 19.845 6.33264 19.9062C6.48036 19.9675 6.63868 19.999 6.79858 19.999C7.12162 19.999 7.43137 19.8708 7.65979 19.6423C7.88821 19.4139 8.0166 19.104 8.0166 18.781C8.01634 18.4581 7.88781 18.1486 7.65942 17.9204C7.43103 17.6922 7.12144 17.564 6.79858 17.564Z" fill="#E54813"/>
</svg>
