<svg xmlns="http://www.w3.org/2000/svg" width="23.741" height="23.742" viewBox="0 0 23.741 23.742"><g transform="translate(-814.451 2936.935)"><path d="M837.526-2923.184,824.44-2936.27a2.278,2.278,0,0,0-3.217,0l-6.107,6.108a2.276,2.276,0,0,0,0,3.216l13.086,13.087a2.263,2.263,0,0,0,1.608.666,2.263,2.263,0,0,0,1.609-.666l6.107-6.108A2.277,2.277,0,0,0,837.526-2923.184Zm-.707,2.51-6.107,6.107a1.3,1.3,0,0,1-1.8,0l-13.086-13.086a1.275,1.275,0,0,1,0-1.8l1.245-1.246a.526.526,0,0,0,.7-.036l2.883-2.883a.526.526,0,0,0,.036-.7l1.245-1.245a1.275,1.275,0,0,1,1.8,0l13.086,13.086A1.276,1.276,0,0,1,836.819-2920.674Z" fill="#d9000d"/><path d="M833.795-2928.3l.958-.287a8.616,8.616,0,0,0-1.761-3.152,8.614,8.614,0,0,0-3.153-1.761l-.287.958a7.713,7.713,0,0,1,2.733,1.51A7.737,7.737,0,0,1,833.795-2928.3Z" fill="#d9000d"/><path d="M836.555-2928.725l.958-.287a12.717,12.717,0,0,0-2.594-4.651,12.674,12.674,0,0,0-4.651-2.593l-.287.958a11.867,11.867,0,0,1,4.231,2.342A11.893,11.893,0,0,1,836.555-2928.725Z" fill="#d9000d"/><path d="M818.847-2921.833l-.958.287a8.619,8.619,0,0,0,1.761,3.152,8.581,8.581,0,0,0,3.152,1.761l.287-.958a7.7,7.7,0,0,1-2.732-1.51A7.708,7.708,0,0,1,818.847-2921.833Z" fill="#d9000d"/><path d="M816.087-2921.405l-.958.287a12.693,12.693,0,0,0,2.594,4.651,12.691,12.691,0,0,0,4.651,2.594l.287-.958a11.88,11.88,0,0,1-4.231-2.343A11.889,11.889,0,0,1,816.087-2921.405Z" fill="#d9000d"/></g></svg>