<svg xmlns="http://www.w3.org/2000/svg" xmlns:xlink="http://www.w3.org/1999/xlink" width="262.218" height="28.276" viewBox="0 0 262.218 28.276"><defs><linearGradient id="a" x1="11.196" y1="0.538" x2="-0.673" y2="0.497" gradientUnits="objectBoundingBox"><stop offset="0" stop-color="#0c2667"/><stop offset="0.511" stop-color="#d9000d"/><stop offset="0.994" stop-color="#e54813"/></linearGradient><linearGradient id="b" x1="39.248" y1="0.534" x2="-7.385" y2="0.493" xlink:href="#a"/><linearGradient id="c" x1="8.164" y1="0.531" x2="-2.094" y2="0.49" xlink:href="#a"/><linearGradient id="d" x1="6.495" y1="0.524" x2="-3.763" y2="0.483" xlink:href="#a"/><linearGradient id="e" x1="5.039" y1="0.52" x2="-4.639" y2="0.479" xlink:href="#a"/><linearGradient id="f" x1="4.775" y1="0.516" x2="-7.095" y2="0.474" xlink:href="#a"/><linearGradient id="g" x1="3.4" y1="0.511" x2="-7.873" y2="0.469" xlink:href="#a"/><linearGradient id="h" x1="2.694" y1="0.507" x2="-10.779" y2="0.465" xlink:href="#a"/><linearGradient id="i" x1="1.407" y1="0.502" x2="-10.974" y2="0.461" xlink:href="#a"/></defs><g transform="translate(-334.156 2941.107)"><path d="M334.156-2912.831v-28.075H346.99q5.334,0,8.182,2.847a8.782,8.782,0,0,1,2.406,6.5,8.539,8.539,0,0,1-6.016,8.7l6.858,10.027H351.2l-6.1-8.984h-4.773v8.984Zm6.176-14.439h6.257a5.078,5.078,0,0,0,3.489-1.1,3.744,3.744,0,0,0,1.243-2.948,3.593,3.593,0,0,0-1.283-2.988,5.592,5.592,0,0,0-3.569-1.022h-6.137Z" fill="url(#a)"/><path d="M363.434-2912.831v-28.075h6.176v28.075Z" fill="url(#b)"/><path d="M376.629-2912.831v-28.075h6.658l7.379,11.872,7.38-11.872H404.7v28.075h-6.137v-18.329l-7.9,11.992h-.16l-7.821-11.872v18.209Z" fill="url(#c)"/><path d="M423.474-2912.831v-28.075h6.657l7.38,11.872,7.38-11.872h6.657v28.075h-6.136v-18.329l-7.9,11.992h-.16l-7.821-11.872v18.209Z" fill="url(#d)"/><path d="M455.88-2912.831l12.032-28.276h5.7l12.033,28.276h-6.458l-2.566-6.3H464.744l-2.567,6.3Zm11.07-11.752h7.46l-3.73-9.1Z" fill="url(#e)"/><path d="M489.971-2912.831v-28.075H502.8q5.334,0,8.182,2.847a8.782,8.782,0,0,1,2.406,6.5,8.539,8.539,0,0,1-6.016,8.7l6.858,10.027h-7.219l-6.1-8.984h-4.773v8.984Zm6.176-14.439H502.4a5.078,5.078,0,0,0,3.489-1.1,3.744,3.744,0,0,0,1.243-2.948,3.6,3.6,0,0,0-1.283-2.988,5.592,5.592,0,0,0-3.569-1.022h-6.137Z" fill="url(#f)"/><path d="M518.968-2912.831v-28.075h6.176v12.272l11.391-12.272h7.46l-11.431,11.912,11.953,16.163H537.1l-8.7-11.952-3.25,3.369v8.583Z" fill="url(#g)"/><path d="M548.246-2912.831v-28.075h21.176v5.494h-15.04v5.7h13.236v5.5H554.382v5.9h15.241v5.495Z" fill="url(#h)"/><path d="M581.655-2912.831v-22.38h-8.543v-5.7h23.262v5.7h-8.542v22.38Z" fill="url(#i)"/></g></svg>