<svg width="16" height="16" viewBox="0 0 16 16" fill="none" xmlns="http://www.w3.org/2000/svg">
<path d="M8.15576 11.1179C8.8213 11.1179 9.47202 10.9206 10.0254 10.5508C10.5788 10.1811 11.01 9.65554 11.2646 9.04067C11.5193 8.4258 11.5859 7.74922 11.4561 7.09647C11.3262 6.44372 11.0058 5.84413 10.5352 5.37352C10.0646 4.90292 9.46525 4.58244 8.8125 4.4526C8.15975 4.32276 7.48304 4.3894 6.86816 4.64409C6.25329 4.89878 5.72766 5.33007 5.35791 5.88344C4.98816 6.43681 4.79102 7.08742 4.79102 7.75295C4.79207 8.64508 5.147 9.50035 5.77783 10.1312C6.40866 10.762 7.26363 11.1169 8.15576 11.1179V11.1179ZM8.15576 5.38794C8.62351 5.38794 9.0808 5.52665 9.46973 5.78652C9.85865 6.04639 10.1618 6.41574 10.3408 6.84789C10.5198 7.28004 10.5668 7.75556 10.4756 8.21433C10.3843 8.6731 10.1589 9.0945 9.82812 9.42525C9.49737 9.756 9.07595 9.98125 8.61719 10.0725C8.15842 10.1638 7.68312 10.1169 7.25098 9.93792C6.81883 9.75892 6.44932 9.45579 6.18945 9.06687C5.92958 8.67795 5.79102 8.2207 5.79102 7.75295C5.79155 7.12588 6.04097 6.52464 6.48438 6.08123C6.92778 5.63782 7.52869 5.38847 8.15576 5.38794Z" fill="url(#paint0_linear)"/>
<path d="M8.15576 15.486C9.68516 15.4858 11.1801 15.0321 12.4517 14.1823C13.7232 13.3325 14.7142 12.1247 15.2993 10.7116C15.8845 9.29858 16.0378 7.74377 15.7393 6.24378C15.4408 4.74379 14.7041 3.36599 13.6226 2.28461C12.541 1.20323 11.1631 0.466837 9.66309 0.168539C8.16306 -0.12976 6.60828 0.0234328 5.19531 0.608755C3.78235 1.19408 2.57477 2.18524 1.7251 3.4569C0.875429 4.72856 0.421875 6.22363 0.421875 7.75303C0.423993 9.80347 1.23948 11.7693 2.68945 13.2191C4.13943 14.6689 6.10532 15.4842 8.15576 15.486V15.486ZM8.15576 1.01902C9.48734 1.01922 10.7889 1.41424 11.896 2.15415C13.0031 2.89406 13.866 3.94562 14.3755 5.17588C14.885 6.40613 15.0181 7.75984 14.7583 9.06582C14.4985 10.3718 13.8576 11.5714 12.916 12.513C11.9744 13.4545 10.7747 14.0958 9.46875 14.3556C8.16277 14.6154 6.80887 14.4822 5.57861 13.9727C4.34836 13.4632 3.29704 12.6004 2.55713 11.4933C1.81722 10.3862 1.42207 9.0846 1.42188 7.75303C1.42373 5.96763 2.13402 4.25588 3.39648 2.99341C4.65895 1.73094 6.37036 1.02087 8.15576 1.01902V1.01902Z" fill="url(#paint1_linear)"/>
<defs>
<linearGradient id="paint0_linear" x1="8.15587" y1="240.497" x2="8.15587" y2="-128.799" gradientUnits="userSpaceOnUse">
<stop stop-color="#0C2667"/>
<stop offset="0.511" stop-color="#D9000D"/>
<stop offset="0.994" stop-color="#E54813"/>
</linearGradient>
<linearGradient id="paint1_linear" x1="8.15489" y1="240.485" x2="8.15489" y2="-128.796" gradientUnits="userSpaceOnUse">
<stop stop-color="#0C2667"/>
<stop offset="0.511" stop-color="#D9000D"/>
<stop offset="0.994" stop-color="#E54813"/>
</linearGradient>
</defs>
</svg>
