<svg width="14" height="21" viewBox="0 0 14 21" fill="none" xmlns="http://www.w3.org/2000/svg">
<path d="M9.9965 20.2389V16.1199H10.0072V15.5409C10.0081 14.8175 10.1581 14.1021 10.4477 13.4392C10.7372 12.7763 11.1603 12.1801 11.6903 11.6879L11.7963 11.5879C12.4691 10.9653 13.0023 10.2071 13.3608 9.36337C13.7192 8.51964 13.8948 7.6095 13.8759 6.69296C13.857 5.77643 13.6443 4.87432 13.2514 4.04608C12.8584 3.21784 12.294 2.48228 11.5961 1.88791C10.3302 0.890653 8.76572 0.348389 7.15421 0.348389C5.54271 0.348389 3.97819 0.890653 2.71232 1.88791C2.0148 2.48255 1.45118 3.21818 1.05851 4.04639C0.665835 4.8746 0.452892 5.7766 0.433997 6.69299C0.415102 7.60938 0.590444 8.51937 0.948645 9.36307C1.30685 10.2068 1.83971 10.965 2.51212 11.5879L2.61954 11.6879C3.14976 12.1801 3.57249 12.7762 3.86222 13.4391C4.15195 14.102 4.30205 14.8174 4.30314 15.5409V16.1199H4.31339V20.2389H9.9965ZM3.46622 10.7789L3.35929 10.6789C2.81547 10.175 2.3844 9.56164 2.09464 8.87921C1.80488 8.19678 1.66302 7.46076 1.67814 6.71951C1.69325 5.97827 1.86519 5.2486 2.18253 4.57855C2.49987 3.9085 2.95554 3.31324 3.51945 2.83191C4.54128 1.97272 5.84883 1.52904 7.18253 1.5889C8.25437 1.54557 9.31372 1.83201 10.2177 2.40955C11.1217 2.98709 11.8266 3.82796 12.2377 4.81876C12.6488 5.80955 12.746 6.90259 12.5165 7.95047C12.287 8.99835 11.7421 9.95062 10.9545 10.6789L10.8481 10.7789C10.1932 11.3875 9.67074 12.1243 9.3129 12.9435C8.95506 13.7628 8.7699 14.6469 8.76847 15.5409V15.6249H5.54728V15.5409C5.54558 14.6466 5.35944 13.7622 5.00089 12.9429C4.64234 12.1236 4.11908 11.387 3.46329 10.7789H3.46622Z" fill="url(#paint0_linear)"/>
<defs>
<linearGradient id="paint0_linear" x1="7.15494" y1="77.4839" x2="7.15494" y2="-291.764" gradientUnits="userSpaceOnUse">
<stop stop-color="#0C2667"/>
<stop offset="0.511" stop-color="#D9000D"/>
<stop offset="0.994" stop-color="#E54813"/>
</linearGradient>
</defs>
</svg>
