<svg width="18" height="17" viewBox="0 0 18 17" fill="none" xmlns="http://www.w3.org/2000/svg">
<path d="M17.8735 5.32495H0.436523V16.4399H17.8735V5.32495ZM1.43652 6.32495H3.04248V15.4399H1.43652V6.32495ZM4.04248 6.32495H5.84814V15.4399H4.04248V6.32495ZM6.84814 6.32495H8.6543V15.4399H6.84814V6.32495ZM9.6543 6.32495H11.4604V15.4399H9.6543V6.32495ZM12.4604 6.32495H14.2676V15.4399H12.4604V6.32495ZM16.8735 15.4399H15.2676V6.32495H16.8735V15.4399Z" fill="url(#paint0_linear)"/>
<path d="M17.9166 3.00195H0.392578V4.00195H17.9166V3.00195Z" fill="url(#paint1_linear)"/>
<path d="M17.9166 0.679932H0.392578V1.67993H17.9166V0.679932Z" fill="url(#paint2_linear)"/>
<defs>
<linearGradient id="paint0_linear" x1="9.15504" y1="142.495" x2="9.15504" y2="-226.801" gradientUnits="userSpaceOnUse">
<stop stop-color="#0C2667"/>
<stop offset="0.511" stop-color="#D9000D"/>
<stop offset="0.994" stop-color="#E54813"/>
</linearGradient>
<linearGradient id="paint1_linear" x1="9.15465" y1="142.495" x2="9.15465" y2="-226.798" gradientUnits="userSpaceOnUse">
<stop stop-color="#0C2667"/>
<stop offset="0.511" stop-color="#D9000D"/>
<stop offset="0.994" stop-color="#E54813"/>
</linearGradient>
<linearGradient id="paint2_linear" x1="9.15465" y1="142.495" x2="9.15465" y2="-226.798" gradientUnits="userSpaceOnUse">
<stop stop-color="#0C2667"/>
<stop offset="0.511" stop-color="#D9000D"/>
<stop offset="0.994" stop-color="#E54813"/>
</linearGradient>
</defs>
</svg>
