<svg width="18" height="18" viewBox="0 0 18 18" fill="none" xmlns="http://www.w3.org/2000/svg">
<path d="M14.1628 12.0939L17.0407 3.23693C17.1392 2.93444 17.152 2.6106 17.0779 2.30126C17.0037 1.99192 16.8453 1.70914 16.6203 1.4842C16.3954 1.25926 16.1128 1.10094 15.8034 1.02677C15.4941 0.952598 15.1699 0.965451 14.8674 1.06393L6.01047 3.94292C5.73008 4.03432 5.47812 4.19608 5.27805 4.41274C5.07798 4.62941 4.9367 4.89375 4.86789 5.18052C4.79909 5.46729 4.80501 5.76691 4.88498 6.05077C4.96496 6.33463 5.11605 6.59326 5.32444 6.80193L11.3034 12.7799C11.512 12.9886 11.771 13.1402 12.0549 13.2204C12.3388 13.3005 12.6382 13.3065 12.925 13.2376C13.2119 13.1688 13.4764 13.0275 13.6931 12.8272C13.9097 12.627 14.0717 12.3745 14.1628 12.0939V12.0939ZM12.0334 12.0499L6.05442 6.07194C5.97084 5.98807 5.91017 5.88417 5.87815 5.77018C5.84613 5.65619 5.84412 5.53591 5.8718 5.42078C5.89948 5.30566 5.95601 5.19955 6.03635 5.11257C6.11669 5.02559 6.21822 4.96064 6.33078 4.92393L15.1877 2.04594C15.3091 2.00649 15.4391 2.00138 15.5632 2.03117C15.6873 2.06096 15.8006 2.12448 15.8908 2.21473C15.9811 2.30498 16.0446 2.41843 16.0744 2.54253C16.1042 2.66664 16.0992 2.79655 16.0598 2.91793L13.1804 11.7749C13.1439 11.8876 13.0793 11.989 12.9924 12.0694C12.9055 12.1499 12.7995 12.2066 12.6843 12.2342C12.5691 12.2618 12.4486 12.2594 12.3347 12.2271C12.2208 12.1948 12.117 12.1338 12.0334 12.0499V12.0499Z" fill="url(#paint0_linear)"/>
<path d="M8.15496 9.94991C7.85505 9.65099 7.449 9.48315 7.02556 9.48315C6.60213 9.48315 6.19607 9.65099 5.89617 9.94991L1.12615 14.7209C0.85443 15.0258 0.709622 15.4231 0.721365 15.8314C0.733109 16.2396 0.900339 16.6279 1.18914 16.9167C1.47794 17.2055 1.86633 17.373 2.27459 17.3847C2.68284 17.3964 3.08002 17.2516 3.38494 16.9799L8.15496 12.2099C8.45418 11.91 8.62224 11.5036 8.62224 11.0799C8.62224 10.6562 8.45418 10.2499 8.15496 9.94991V9.94991ZM2.65496 16.2499C2.54887 16.356 2.40509 16.4156 2.25506 16.4156C2.10503 16.4156 1.96124 16.356 1.85515 16.2499C1.74907 16.1438 1.68914 15.9999 1.68914 15.8499C1.68914 15.6999 1.74907 15.556 1.85515 15.4499L6.62615 10.6789C6.73224 10.5728 6.87602 10.5132 7.02605 10.5132C7.17608 10.5132 7.31987 10.5728 7.42596 10.6789C7.53204 10.785 7.59197 10.9289 7.59197 11.0789C7.59197 11.2289 7.53204 11.3728 7.42596 11.4789L2.65496 16.2499Z" fill="url(#paint1_linear)"/>
<path d="M9.76963 8.33591C9.46968 8.03669 9.06293 7.86865 8.63925 7.86865C8.21558 7.86865 7.80932 8.03669 7.50937 8.33591L7.62265 8.22292C7.34905 8.52763 7.20242 8.92566 7.21347 9.33504C7.22452 9.74441 7.39209 10.134 7.68173 10.4235C7.97138 10.713 8.36122 10.8804 8.7706 10.8913C9.17998 10.9022 9.57782 10.7556 9.88242 10.4819L9.76963 10.5949C10.0685 10.295 10.2364 9.88884 10.2364 9.46541C10.2364 9.04198 10.0685 8.63581 9.76963 8.33591V8.33591ZM9.15244 9.75291C9.0452 9.85323 8.90327 9.90793 8.75644 9.90549C8.60962 9.90304 8.46965 9.84363 8.36582 9.73979C8.26198 9.63596 8.20225 9.49582 8.1998 9.349C8.19735 9.20217 8.25232 9.06015 8.35263 8.95291L8.23935 9.0659C8.34544 8.95982 8.48922 8.90022 8.63925 8.90022C8.78928 8.90022 8.93356 8.95982 9.03964 9.0659C9.14573 9.17199 9.20517 9.31588 9.20517 9.46591C9.20517 9.61594 9.14573 9.75982 9.03964 9.86591L9.15244 9.75291Z" fill="url(#paint2_linear)"/>
<defs>
<linearGradient id="paint0_linear" x1="10.9729" y1="309.452" x2="10.9729" y2="-59.7875" gradientUnits="userSpaceOnUse">
<stop stop-color="#0C2667"/>
<stop offset="0.511" stop-color="#D9000D"/>
<stop offset="0.994" stop-color="#E54813"/>
</linearGradient>
<linearGradient id="paint1_linear" x1="4.67147" y1="307.12" x2="4.67147" y2="-59.2503" gradientUnits="userSpaceOnUse">
<stop stop-color="#0C2667"/>
<stop offset="0.511" stop-color="#D9000D"/>
<stop offset="0.994" stop-color="#E54813"/>
</linearGradient>
<linearGradient id="paint2_linear" x1="8.72466" y1="303.744" x2="8.72466" y2="-58.5059" gradientUnits="userSpaceOnUse">
<stop stop-color="#0C2667"/>
<stop offset="0.511" stop-color="#D9000D"/>
<stop offset="0.994" stop-color="#E54813"/>
</linearGradient>
</defs>
</svg>
