<svg xmlns="http://www.w3.org/2000/svg" width="25.042" height="22.936" viewBox="0 0 25.042 22.936"><g transform="translate(-644.43 2936.532)"><rect width="13.131" height="1" transform="translate(649.333 -2927.37)" fill="#d9000d"/><rect width="10.129" height="1" transform="translate(649.333 -2923.886)" fill="#d9000d"/><rect width="8.128" height="1" transform="translate(649.333 -2920.403)" fill="#d9000d"/><circle cx="0.5" cy="0.5" r="0.5" transform="translate(647.237 -2934.209)" fill="#d9000d"/><circle cx="0.5" cy="0.5" r="0.5" transform="translate(648.494 -2934.209)" fill="#d9000d"/><circle cx="0.5" cy="0.5" r="0.5" transform="translate(649.751 -2934.209)" fill="#d9000d"/><path d="M669.471-2928.084a1.621,1.621,0,0,0-.444-1.168,1.62,1.62,0,0,0-1.14-.513,1.522,1.522,0,0,0-.521.072v-4.21a2.632,2.632,0,0,0-2.629-2.629H647.059a2.633,2.633,0,0,0-2.629,2.629v17.678a2.633,2.633,0,0,0,2.629,2.629h17.678a2.632,2.632,0,0,0,2.629-2.629v-9.22l1.592-1.5A1.62,1.62,0,0,0,669.471-2928.084Zm-22.412-7.448h17.678a1.631,1.631,0,0,1,1.629,1.629v1.549H645.43v-1.549A1.631,1.631,0,0,1,647.059-2935.532Zm19.307,19.307a1.631,1.631,0,0,1-1.629,1.629H647.059a1.631,1.631,0,0,1-1.629-1.629v-15.129h20.936v2.365l-5.783,5.445a5.187,5.187,0,0,0-1.253,1.838l-1.017,2.543,2.6-.864a5.174,5.174,0,0,0,1.91-1.14l3.544-3.337Zm2.078-11.265-6.136,5.777a4.432,4.432,0,0,1-1.632.975l-1.067.354.418-1.043A4.442,4.442,0,0,1,661.1-2923l6.136-5.778a.879.879,0,0,1,.605-.24h.027a.873.873,0,0,1,.616.277.876.876,0,0,1,.24.632A.879.879,0,0,1,668.444-2927.49Z" fill="#d9000d"/></g></svg>