<svg width="22" height="22" viewBox="0 0 22 22" fill="none" xmlns="http://www.w3.org/2000/svg">
<path d="M20.6119 19.2229L16.83 15.4409C18.0921 13.6781 18.6876 11.5246 18.5107 9.36377C18.3338 7.20294 17.396 5.17495 15.864 3.64087C15.0133 2.79013 14.0033 2.11545 12.8918 1.65503C11.7803 1.19461 10.5891 0.95752 9.38599 0.95752C8.1829 0.95752 6.9915 1.19461 5.88 1.65503C4.76851 2.11545 3.75864 2.79013 2.90796 3.64087C2.05722 4.49155 1.38241 5.50154 0.921997 6.61304C0.461579 7.72454 0.224609 8.91581 0.224609 10.1189C0.224609 11.322 0.461579 12.5133 0.921997 13.6248C1.38241 14.7363 2.05722 15.7462 2.90796 16.5969C4.44191 18.1291 6.46978 19.0673 8.63062 19.2444C10.7914 19.4215 12.9451 18.826 14.708 17.564L18.49 21.345C18.6293 21.4844 18.7946 21.5952 18.9767 21.6707C19.1587 21.7462 19.3538 21.7849 19.5509 21.7849C19.9486 21.7846 20.3299 21.6264 20.611 21.345C20.7504 21.2057 20.8611 21.0404 20.9366 20.8584C21.0122 20.6764 21.0511 20.4812 21.0511 20.2842C21.0512 20.0871 21.0125 19.892 20.9371 19.71C20.8618 19.5279 20.7513 19.3623 20.6119 19.2229ZM4.45898 15.0449C3.1523 13.7382 2.41821 11.9659 2.41821 10.1179C2.41821 8.26995 3.1523 6.49766 4.45898 5.19092C5.76573 3.88424 7.53802 3.15015 9.38599 3.15015C11.234 3.15015 13.0062 3.88424 14.313 5.19092C15.6197 6.49766 16.3538 8.26995 16.3538 10.1179C16.3538 11.9659 15.6197 13.7382 14.313 15.0449C13.0062 16.3516 11.234 17.0857 9.38599 17.0857C7.53802 17.0857 5.76573 16.3516 4.45898 15.0449Z" fill="#E54813"/>
</svg>
