<svg xmlns="http://www.w3.org/2000/svg" width="25.48" height="23.702" viewBox="0 0 25.48 23.702"><g transform="translate(-938.064 2936.915)"><path d="M945.866-2936.915v9.334h-4.485l-1.225,5.2h-2.092v6.738h2.094a2.928,2.928,0,0,0,2.878,2.429,2.929,2.929,0,0,0,2.879-2.429h9.274a2.929,2.929,0,0,0,2.879,2.429,2.928,2.928,0,0,0,2.878-2.429h2.6v-21.273Zm-2.83,22.7a1.931,1.931,0,0,1-1.928-1.929,1.931,1.931,0,0,1,1.928-1.929,1.931,1.931,0,0,1,1.929,1.929A1.932,1.932,0,0,1,943.036-2914.213Zm15.032,0a1.932,1.932,0,0,1-1.929-1.929,1.931,1.931,0,0,1,1.929-1.929,1.931,1.931,0,0,1,1.928,1.929A1.931,1.931,0,0,1,958.068-2914.213Zm4.476-2.429h-1.6a2.928,2.928,0,0,0-2.878-2.429,2.929,2.929,0,0,0-2.879,2.429h-9.274a2.929,2.929,0,0,0-2.879-2.429,2.928,2.928,0,0,0-2.878,2.429h-1.094v-4.738h1.884l1.224-5.2h3.694v5.7h1v-15.03h15.678Z" fill="#d9000d"/></g></svg>