<svg xmlns="http://www.w3.org/2000/svg" width="20.812" height="22.936" viewBox="0 0 20.812 22.936"><g transform="translate(-1062.967 2936.532)"><path d="M1078.229-2915.043a10.593,10.593,0,0,1-5.61,1.447c-5.218,0-9.652-4.338-9.652-10.581,0-6.506,4.193-12.355,11.341-12.355,5.76,0,9.471,4.436,9.471,10.154,0,4.5-2.746,7.13-5.309,7.13-1.146,0-2.443-.953-2.232-3.286h-.12c-1.117,2.07-2.564,3.286-4.917,3.286-1.719,0-3.438-1.676-3.438-4.239a7.548,7.548,0,0,1,7.39-7.689,7.933,7.933,0,0,1,3.468.724l-1.025,5.487c-.573,3.023-.091,4.4,1.146,4.435,1.749.066,3.619-2.1,3.619-5.684,0-5.224-3.076-9.1-8.294-9.1-5.339,0-9.682,4.206-9.682,10.975,0,5.553,3.74,9.463,8.325,9.463a8.98,8.98,0,0,0,5.037-1.348Zm-1.056-14.49a5.786,5.786,0,0,0-2.2-.394c-3.138,0-5.851,2.728-5.851,6.473a2.657,2.657,0,0,0,2.653,2.957c2.353,0,4.344-3.22,4.7-5.323Z" fill="#d9000d"/></g></svg>