<svg width="88" height="73" viewBox="0 0 88 73" fill="none" xmlns="http://www.w3.org/2000/svg">
<path fill-rule="evenodd" clip-rule="evenodd" d="M15.2882 44.3569C15.8952 44.3909 17.0822 44.4649 17.7062 44.4279C18.8263 44.3955 19.9229 44.0984 20.9062 43.5609C21.866 42.9986 22.5656 42.0806 22.8532 41.0059C23.0195 40.5471 23.0788 40.0564 23.0268 39.5712C22.9749 39.086 22.8129 38.6191 22.5532 38.2059C21.4232 36.1059 17.2762 36.6339 17.2622 36.6349L16.7012 36.6889L15.2912 44.3539L15.2882 44.3569ZM20.1962 58.3799C18.8102 50.3309 23.6122 47.3509 18.1602 46.5399C17.0747 46.3267 15.9751 46.193 14.8702 46.1399L12.7312 58.3969C10.4312 58.4139 3.36318 58.6319 2.13918 57.5639C1.95518 57.4019 1.9662 57.2979 2.0212 56.9869L7.54018 36.6869C8.38818 34.1049 16.2402 34.6439 20.3242 34.6269C24.1002 34.6109 27.3332 34.9449 29.5082 36.1549C30.3257 36.5531 31.006 37.1859 31.4623 37.9724C31.9186 38.7589 32.1302 39.6636 32.0702 40.5709C32.1047 41.2426 31.9421 41.9097 31.6024 42.4902C31.2627 43.0706 30.7607 43.5391 30.1582 43.8379C28.7732 44.6379 28.0822 44.8599 24.1582 45.5289C28.0182 46.3189 28.7852 46.5369 29.4522 47.6819C31.4172 51.0469 30.0212 57.2509 32.4142 58.3719H20.1992L20.1962 58.3799ZM46.1812 34.5239L47.4022 58.4109L36.5312 58.3789L37.3672 34.5609L46.1812 34.5239ZM68.2682 47.7389L70.9112 34.3189C73.7112 34.3079 79.7442 33.1639 80.7872 36.7079L87.1672 58.3729L76.8762 58.3799L72.8392 39.5509L69.8392 58.3839L63.8542 58.3929L54.8672 41.3869L56.3352 58.2499L53.2722 58.2729L51.2832 34.6059C54.1532 34.5939 57.5932 34.4769 60.4632 34.4649L68.2702 47.7389H68.2682Z" fill="url(#paint0_linear)"/>
<path fill-rule="evenodd" clip-rule="evenodd" d="M33.3364 15.074C33.3984 16.689 34.2234 19.739 38.2854 24.016C42.3474 28.293 39.4634 31.874 39.4634 31.874C39.4634 31.874 38.7854 29.527 34.5404 26.714C31.0264 23.614 33.3404 15.074 33.3404 15.074H33.3364Z" fill="url(#paint1_linear)"/>
<path fill-rule="evenodd" clip-rule="evenodd" d="M47.345 5.96405C47.09 5.83205 50.0841 10.274 44.7581 15.583C39.4321 20.892 43.858 30.5831 43.438 30.1671C43.018 29.7511 46.038 25.603 51.238 21.204C57.238 15.958 50.531 7.62305 47.338 5.96405H47.345Z" fill="url(#paint2_linear)"/>
<path fill-rule="evenodd" clip-rule="evenodd" d="M40.69 1.04796C39.863 0.634962 43.0801 5.20998 37.4741 10.089C31.8681 14.968 39.451 24.1959 39.874 23.6819C40.297 23.1679 38.869 17.699 44.161 13.368C49.51 8.52797 42.878 2.14296 40.688 1.04796H40.69Z" fill="url(#paint3_linear)"/>
<path fill-rule="evenodd" clip-rule="evenodd" d="M38.4203 0.135952C38.2533 -0.202048 37.7203 3.23596 33.0203 6.72396C28.3203 10.212 31.9663 15.2459 31.9013 15.1029C31.8363 14.9599 32.1153 11.223 36.5013 8.70297C40.6623 5.09197 39.2503 1.82691 38.4163 0.137905L38.4203 0.135952Z" fill="url(#paint4_linear)"/>
<path d="M12.0881 66.0409H3.6361V71.0199H12.0881V69.3199H7.67809V67.9049H14.7401V70.6579C14.7744 70.9367 14.7374 71.2197 14.6324 71.4803C14.5275 71.7409 14.3581 71.9706 14.1401 72.1479C13.4248 72.4778 12.6359 72.6157 11.8511 72.5479H3.81011C3.02563 72.6158 2.23698 72.4779 1.52208 72.1479C1.30409 71.9706 1.13469 71.7409 1.02974 71.4803C0.924798 71.2197 0.88777 70.9367 0.922107 70.6579V66.4499C0.888188 66.1716 0.925444 65.8894 1.03038 65.6295C1.13532 65.3696 1.30449 65.1406 1.52208 64.9639C2.23698 64.6339 3.02563 64.496 3.81011 64.5639H11.8541C12.6345 64.4967 13.4192 64.6295 14.1341 64.9499C14.3466 65.1114 14.5136 65.3253 14.6187 65.5707C14.7239 65.8161 14.7636 66.0846 14.7341 66.3499V66.5569L12.0821 66.8779V66.0289L12.0881 66.0409ZM28.2061 65.9469H22.0331V68.1539H28.2061C28.5355 68.1778 28.8659 68.1272 29.1731 68.0059C29.2601 67.9564 29.3311 67.883 29.3777 67.7943C29.4243 67.7057 29.4446 67.6057 29.4361 67.5059V66.5889C29.4447 66.4891 29.4245 66.389 29.3779 66.3003C29.3313 66.2117 29.2602 66.1383 29.1731 66.0889C28.8661 65.9672 28.5355 65.9166 28.2061 65.9409V65.9469ZM19.3551 72.5468V64.5709H29.3551C30.0371 64.5241 30.72 64.6492 31.3411 64.9348C31.5429 65.0569 31.707 65.2326 31.8151 65.4424C31.9231 65.6521 31.9709 65.8877 31.9531 66.1229V67.9959C31.9706 68.2289 31.9226 68.4621 31.8144 68.6692C31.7063 68.8763 31.5423 69.0491 31.3411 69.1679C30.7198 69.4527 30.0369 69.5772 29.3551 69.5299H27.8341L33.1101 72.5468H29.2301L24.5791 69.5299H22.0331V72.5468H19.3551ZM38.8551 71.0199H47.8061V66.0409H38.8541V71.0199H38.8551ZM36.1551 66.4559C36.1209 66.1781 36.1571 65.8961 36.2604 65.6359C36.3637 65.3757 36.5307 65.1457 36.7461 64.9669C37.462 64.6355 38.2523 64.4975 39.0381 64.5669H47.6311C48.4196 64.4964 49.2127 64.6344 49.9311 64.9669C50.1442 65.1471 50.3091 65.3777 50.4107 65.6377C50.5123 65.8977 50.5475 66.1789 50.5131 66.4559V70.6559C50.5474 70.9347 50.5104 71.2177 50.4054 71.4783C50.3005 71.7389 50.1311 71.9686 49.9131 72.1458C49.1982 72.4759 48.4096 72.6138 47.6251 72.5459H39.0341C38.2483 72.6152 37.458 72.4773 36.7421 72.1458C36.5263 71.9672 36.3591 71.737 36.2558 71.4766C36.1525 71.2162 36.1164 70.9339 36.1511 70.6559V66.4559H36.1551ZM57.8861 64.5709V71.0579H65.6031V64.5709H68.3341V70.6609C68.3679 70.9401 68.3297 71.2233 68.2231 71.4836C68.1165 71.7439 67.9451 71.9726 67.7251 72.1479C67.0013 72.4791 66.204 72.617 65.4111 72.5479H58.0741C57.2857 72.6167 56.493 72.4788 55.7741 72.1479C55.556 71.9707 55.3866 71.741 55.2816 71.4804C55.1767 71.2197 55.1397 70.9367 55.1741 70.6579V64.5679L57.8861 64.5709ZM73.2681 72.5468V64.5709H83.2681C83.9518 64.5222 84.6368 64.6474 85.2591 64.9348C85.4601 65.0568 85.6234 65.2322 85.7307 65.4414C85.8381 65.6506 85.8853 65.8855 85.8671 66.1199V67.8828C85.8848 68.1182 85.8368 68.3538 85.7286 68.5636C85.6204 68.7733 85.4562 68.9489 85.2541 69.0709C84.6331 69.357 83.9502 69.4825 83.2681 69.4359H75.9441V72.5468H73.2681ZM82.1191 65.9469H75.9461V68.0589H82.1191C82.4485 68.0832 82.7791 68.0325 83.0861 67.9109C83.1733 67.8615 83.2445 67.7882 83.2911 67.6996C83.3377 67.6109 83.3579 67.5107 83.3491 67.4109V66.5879C83.3581 66.488 83.3381 66.3878 83.2914 66.299C83.2448 66.2103 83.1735 66.137 83.0861 66.0879C82.7791 65.9662 82.4485 65.9156 82.1191 65.9399V65.9469Z" fill="#0C2667" stroke="#002773" stroke-width="0.035" stroke-miterlimit="22.926"/>
<path d="M0.919922 62.0519H85.8089L85.6039 61.4319H1.10391L0.919922 62.0489V62.0519Z" stroke="#D9000D" stroke-width="0.25" stroke-miterlimit="22.926"/>
<defs>
<linearGradient id="paint0_linear" x1="1.98584" y1="46.2803" x2="87.1672" y2="46.2803" gradientUnits="userSpaceOnUse">
<stop stop-color="#DA000C"/>
<stop offset="1" stop-color="#E54800"/>
</linearGradient>
<linearGradient id="paint1_linear" x1="32.5928" y1="23.474" x2="40.4564" y2="23.474" gradientUnits="userSpaceOnUse">
<stop stop-color="#DA000C"/>
<stop offset="1" stop-color="#E54800"/>
</linearGradient>
<linearGradient id="paint2_linear" x1="42.1099" y1="18.0706" x2="53.6477" y2="18.0706" gradientUnits="userSpaceOnUse">
<stop stop-color="#DA000C"/>
<stop offset="1" stop-color="#E54800"/>
</linearGradient>
<linearGradient id="paint3_linear" x1="35.417" y1="12.3623" x2="46.1973" y2="12.3623" gradientUnits="userSpaceOnUse">
<stop stop-color="#DA000C"/>
<stop offset="1" stop-color="#E54800"/>
</linearGradient>
<linearGradient id="paint4_linear" x1="30.6143" y1="7.60941" x2="39.3368" y2="7.60941" gradientUnits="userSpaceOnUse">
<stop stop-color="#DA000C"/>
<stop offset="1" stop-color="#E54800"/>
</linearGradient>
</defs>
</svg>
