<svg width="14" height="17" viewBox="0 0 14 17" fill="none" xmlns="http://www.w3.org/2000/svg">
<path d="M13.6265 3.37485H12.4424V0.880859H0.683594V6.74686H12.4424V4.25284H12.7476V7.46783L6.81934 8.11084C6.80634 8.11084 6.79523 8.11084 6.78223 8.11084C6.41092 8.11084 6.05503 8.25835 5.79248 8.5209C5.52993 8.78346 5.38232 9.13953 5.38232 9.51083V15.4369C5.38232 15.809 5.53034 16.1658 5.79346 16.4289C6.05657 16.692 6.41306 16.8398 6.78516 16.8398C7.15725 16.8398 7.51423 16.692 7.77734 16.4289C8.04046 16.1658 8.18848 15.809 8.18848 15.4369V9.51083C8.18745 9.28533 8.13108 9.06352 8.02441 8.86484L13.6245 8.25684L13.6265 3.37485ZM11.5645 5.86786H1.56445V1.75885H11.5645V5.86786ZM7.2793 15.4369C7.28764 15.507 7.28091 15.5781 7.25977 15.6455C7.23863 15.7129 7.20365 15.7751 7.15674 15.8279C7.10983 15.8807 7.05223 15.923 6.98779 15.952C6.92335 15.9809 6.85336 15.9959 6.78271 15.9959C6.71207 15.9959 6.64256 15.9809 6.57812 15.952C6.51369 15.923 6.45609 15.8807 6.40918 15.8279C6.36227 15.7751 6.3268 15.7129 6.30566 15.6455C6.28452 15.5781 6.27828 15.507 6.28662 15.4369V9.51083C6.27828 9.44068 6.28452 9.36956 6.30566 9.30215C6.3268 9.23475 6.36227 9.1726 6.40918 9.11978C6.45609 9.06696 6.51369 9.02468 6.57812 8.99573C6.64256 8.96677 6.71207 8.95178 6.78271 8.95178C6.85336 8.95178 6.92335 8.96677 6.98779 8.99573C7.05223 9.02468 7.10983 9.06696 7.15674 9.11978C7.20365 9.1726 7.23863 9.23475 7.25977 9.30215C7.28091 9.36956 7.28764 9.44068 7.2793 9.51083V15.4369Z" fill="url(#paint0_linear)"/>
<defs>
<linearGradient id="paint0_linear" x1="7.15503" y1="208.491" x2="7.15503" y2="-160.8" gradientUnits="userSpaceOnUse">
<stop stop-color="#0C2667"/>
<stop offset="0.511" stop-color="#D9000D"/>
<stop offset="0.994" stop-color="#E54813"/>
</linearGradient>
</defs>
</svg>
