<svg width="18" height="17" viewBox="0 0 18 17" fill="none" xmlns="http://www.w3.org/2000/svg">
<path d="M17.7832 0.71582H0.525391V16.6158H17.7832V0.71582ZM16.7832 15.6158H1.52539V1.71582H16.7832V15.6158Z" fill="url(#paint0_linear)"/>
<path d="M9.15381 13.9088C10.1906 13.9088 11.2043 13.6013 12.0664 13.0253C12.9285 12.4492 13.6003 11.6305 13.9971 10.6726C14.3938 9.71469 14.4973 8.66066 14.2949 7.64379C14.0926 6.62691 13.5936 5.69286 12.8604 4.9598C12.1271 4.22673 11.1927 3.72756 10.1758 3.52541C9.15887 3.32326 8.10481 3.42721 7.14697 3.82412C6.18914 4.22102 5.3708 4.89306 4.79492 5.75524C4.21904 6.61741 3.91191 7.63099 3.91211 8.6678C3.91396 10.0574 4.46653 11.3896 5.44922 12.3721C6.43191 13.3546 7.7642 13.9072 9.15381 13.9088ZM9.15381 4.4258C9.9928 4.4258 10.8131 4.67459 11.5107 5.1407C12.2083 5.60682 12.7517 6.26933 13.0728 7.04445C13.3938 7.81958 13.4781 8.67251 13.3145 9.49538C13.1508 10.3182 12.7466 11.0741 12.1533 11.6673C11.5601 12.2606 10.8043 12.6646 9.98145 12.8283C9.15858 12.992 8.30589 12.908 7.53076 12.5869C6.75564 12.2658 6.09307 11.7221 5.62695 11.0245C5.16084 10.3269 4.91211 9.50679 4.91211 8.6678C4.91317 7.54308 5.36046 6.46472 6.15576 5.66942C6.95106 4.87412 8.02909 4.42686 9.15381 4.4258Z" fill="url(#paint1_linear)"/>
<path d="M10.6182 9.30885C10.7449 9.30885 10.8692 9.27125 10.9746 9.20082C11.08 9.13038 11.1619 9.03029 11.2104 8.91316C11.259 8.79603 11.2718 8.66714 11.2471 8.5428C11.2223 8.41846 11.1614 8.30426 11.0718 8.21461C10.9821 8.12497 10.868 8.0639 10.7437 8.03917C10.6193 8.01443 10.4902 8.02715 10.373 8.07567C10.2559 8.12418 10.1559 8.20634 10.0854 8.31175C10.015 8.41716 9.97754 8.54108 9.97754 8.66786C9.97754 8.83786 10.0448 9.0009 10.165 9.12111C10.2852 9.24132 10.4482 9.30885 10.6182 9.30885V9.30885Z" fill="url(#paint2_linear)"/>
<path d="M7.68994 9.30885C7.81672 9.30885 7.94049 9.27125 8.0459 9.20082C8.15131 9.13038 8.23371 9.03029 8.28223 8.91316C8.33074 8.79603 8.34309 8.66714 8.31836 8.5428C8.29363 8.41846 8.23271 8.30426 8.14307 8.21461C8.05342 8.12497 7.93928 8.0639 7.81494 8.03917C7.6906 8.01443 7.56195 8.02715 7.44482 8.07567C7.3277 8.12418 7.22717 8.20634 7.15674 8.31175C7.0863 8.41716 7.04883 8.54108 7.04883 8.66786C7.04909 8.83778 7.11666 9.00068 7.23682 9.12083C7.35697 9.24099 7.52002 9.30859 7.68994 9.30885V9.30885Z" fill="url(#paint3_linear)"/>
<defs>
<linearGradient id="paint0_linear" x1="9.1543" y1="109.472" x2="9.1543" y2="-259.742" gradientUnits="userSpaceOnUse">
<stop stop-color="#0C2667"/>
<stop offset="0.511" stop-color="#D9000D"/>
<stop offset="0.994" stop-color="#E54813"/>
</linearGradient>
<linearGradient id="paint1_linear" x1="9.15396" y1="109.502" x2="9.15396" y2="-259.828" gradientUnits="userSpaceOnUse">
<stop stop-color="#0C2667"/>
<stop offset="0.511" stop-color="#D9000D"/>
<stop offset="0.994" stop-color="#E54813"/>
</linearGradient>
<linearGradient id="paint2_linear" x1="10.6184" y1="109.495" x2="10.6184" y2="-259.801" gradientUnits="userSpaceOnUse">
<stop stop-color="#0C2667"/>
<stop offset="0.511" stop-color="#D9000D"/>
<stop offset="0.994" stop-color="#E54813"/>
</linearGradient>
<linearGradient id="paint3_linear" x1="7.68979" y1="109.495" x2="7.68979" y2="-259.801" gradientUnits="userSpaceOnUse">
<stop stop-color="#0C2667"/>
<stop offset="0.511" stop-color="#D9000D"/>
<stop offset="0.994" stop-color="#E54813"/>
</linearGradient>
</defs>
</svg>
