<svg width="18" height="19" viewBox="0 0 18 19" fill="none" xmlns="http://www.w3.org/2000/svg">
<path d="M15.687 14.178H16.4048C16.6634 14.178 16.9114 14.0753 17.0942 13.8924C17.2771 13.7096 17.3799 13.4616 17.3799 13.203C17.3799 12.9444 17.2771 12.6964 17.0942 12.5136C16.9114 12.3307 16.6634 12.228 16.4048 12.228H7.33789L7.53809 12.182L7.35596 11.394L7.11084 11.451L7.29199 12.228H6.70801L6.53467 11.48L6.29102 11.537L6.45068 12.228H2.48877V1.22801C2.61182 1.08085 2.76653 0.963023 2.94092 0.883097C3.1153 0.803171 3.30526 0.763152 3.49707 0.766001C3.79654 0.766673 4.08605 0.872917 4.31494 1.06602C4.44171 0.966364 4.57741 0.878955 4.7207 0.805003C4.7287 0.805003 4.73712 0.805007 4.74512 0.797007C4.41872 0.461099 3.97222 0.268331 3.50391 0.260996H3.47998C3.20709 0.260079 2.93756 0.321936 2.69238 0.441752C2.4472 0.561568 2.23287 0.736144 2.06592 0.952006C2.01661 1.01786 1.98948 1.09774 1.98877 1.18V12.228H1.90479C1.6462 12.228 1.39818 12.3307 1.21533 12.5136C1.03248 12.6964 0.929688 12.9444 0.929688 13.203C0.929688 13.4616 1.03248 13.7096 1.21533 13.8924C1.39818 14.0753 1.6462 14.178 1.90479 14.178H2.62402C2.68562 15.1233 3.10403 16.0099 3.79443 16.6586C4.48484 17.3072 5.39547 17.6694 6.34277 17.672H11.9697C12.9165 17.6685 13.8267 17.3059 14.5166 16.6574C15.2065 16.0089 15.625 15.1228 15.687 14.178V14.178ZM2.59668 13.678H1.90283C1.77685 13.678 1.65597 13.628 1.56689 13.5389C1.47781 13.4498 1.42773 13.329 1.42773 13.203C1.42773 13.077 1.47781 12.9562 1.56689 12.8671C1.65597 12.7781 1.77685 12.728 1.90283 12.728H16.4028C16.4652 12.728 16.5268 12.7403 16.5845 12.7642C16.6421 12.788 16.6947 12.823 16.7388 12.8671C16.7829 12.9112 16.8179 12.9636 16.8418 13.0213C16.8657 13.0789 16.8779 13.1406 16.8779 13.203C16.8779 13.2654 16.8657 13.3271 16.8418 13.3848C16.8179 13.4424 16.7829 13.4948 16.7388 13.5389C16.6947 13.583 16.6421 13.618 16.5845 13.6419C16.5268 13.6657 16.4652 13.678 16.4028 13.678H2.5957H2.59668ZM11.9678 17.172H6.34082C5.52396 17.171 4.73769 16.8623 4.13818 16.3075C3.53868 15.7527 3.17007 14.9924 3.10596 14.178H15.2061C15.1421 14.993 14.773 15.7538 14.1729 16.3088C13.5727 16.8638 12.7852 17.172 11.9678 17.172V17.172Z" fill="url(#paint0_linear)"/>
<path d="M12.167 18.1919C12.167 18.2908 12.196 18.3875 12.251 18.4697C12.3059 18.5519 12.3842 18.616 12.4756 18.6538C12.5669 18.6917 12.6677 18.7016 12.7646 18.6823C12.8616 18.663 12.9506 18.6154 13.0205 18.5455C13.0904 18.4755 13.1379 18.3864 13.1572 18.2895C13.1765 18.1925 13.1668 18.0919 13.1289 18.0006C13.0911 17.9092 13.027 17.8311 12.9448 17.7762C12.8626 17.7212 12.7659 17.6919 12.667 17.6919C12.5344 17.6919 12.4072 17.7446 12.3135 17.8383C12.2197 17.9321 12.167 18.0593 12.167 18.1919Z" fill="url(#paint1_linear)"/>
<path d="M5.64444 18.688C5.91837 18.688 6.14044 18.466 6.14044 18.192C6.14044 17.9181 5.91837 17.696 5.64444 17.696C5.3705 17.696 5.14844 17.9181 5.14844 18.192C5.14844 18.466 5.3705 18.688 5.64444 18.688Z" fill="url(#paint2_linear)"/>
<path d="M4.31279 1.06706C3.78579 1.47406 3.52492 2.01807 3.72392 2.40907C3.96892 2.89207 4.81078 2.95606 5.60478 2.55406C6.39878 2.15206 6.84392 1.43309 6.59892 0.954085C6.35392 0.475085 5.52948 0.41107 4.74248 0.80107C4.73448 0.80107 4.72655 0.801066 4.71855 0.809066C4.57538 0.882065 4.43968 0.968446 4.31279 1.06706V1.06706ZM4.94756 1.25908C5.61856 0.919078 6.29672 0.907077 6.46172 1.23308C6.62672 1.55908 6.21768 2.09807 5.54668 2.43907C4.87568 2.78007 4.19754 2.79107 4.03154 2.46507C3.86554 2.13907 4.27656 1.60008 4.94756 1.25908Z" fill="url(#paint3_linear)"/>
<path d="M6.73083 2.55118L6.48633 2.60791L6.82447 4.06519L7.06897 4.00846L6.73083 2.55118Z" fill="url(#paint4_linear)"/>
<path d="M7.15949 4.392L6.91504 4.44897L7.09866 5.23686L7.34311 5.17989L7.15949 4.392Z" fill="url(#paint5_linear)"/>
<path d="M7.21875 5.75598L7.55908 7.21396L7.80273 7.15698L7.46289 5.69897L7.21875 5.75598Z" fill="url(#paint6_linear)"/>
<path d="M7.89289 7.54093L7.64844 7.5979L7.83206 8.38579L8.07651 8.32881L7.89289 7.54093Z" fill="url(#paint7_linear)"/>
<path d="M7.95117 8.90002L8.2915 10.358L8.53516 10.301L8.19531 8.84302L7.95117 8.90002Z" fill="url(#paint8_linear)"/>
<path d="M8.62433 10.6891L8.37988 10.7461L8.56351 11.534L8.80796 11.477L8.62433 10.6891Z" fill="url(#paint9_linear)"/>
<path d="M6.11657 2.95938L5.87207 3.01611L6.21021 4.4734L6.45471 4.41667L6.11657 2.95938Z" fill="url(#paint10_linear)"/>
<path d="M6.54425 4.79996L6.2998 4.85693L6.48343 5.64482L6.72788 5.58785L6.54425 4.79996Z" fill="url(#paint11_linear)"/>
<path d="M6.84995 6.10724L6.60547 6.16406L6.94436 7.6222L7.18884 7.56538L6.84995 6.10724Z" fill="url(#paint12_linear)"/>
<path d="M7.27575 7.94937L7.03125 8.0061L7.21411 8.79417L7.45861 8.73743L7.27575 7.94937Z" fill="url(#paint13_linear)"/>
<path d="M7.5814 9.25519L7.33691 9.31201L7.6758 10.7701L7.92029 10.7133L7.5814 9.25519Z" fill="url(#paint14_linear)"/>
<path d="M8.01007 11.0971L7.76562 11.1541L7.94925 11.9419L8.1937 11.885L8.01007 11.0971Z" fill="url(#paint15_linear)"/>
<path d="M5.4603 3.25617L5.21582 3.31299L5.55471 4.77112L5.79919 4.7143L5.4603 3.25617Z" fill="url(#paint16_linear)"/>
<path d="M5.88904 5.0983L5.64453 5.15503L5.82739 5.94309L6.07189 5.88636L5.88904 5.0983Z" fill="url(#paint17_linear)"/>
<path d="M6.19177 6.4042L5.94727 6.46094L6.2854 7.91822L6.52991 7.86149L6.19177 6.4042Z" fill="url(#paint18_linear)"/>
<path d="M6.62146 8.24625L6.37695 8.30298L6.55981 9.09104L6.80431 9.03431L6.62146 8.24625Z" fill="url(#paint19_linear)"/>
<path d="M6.92517 9.55215L6.68066 9.60889L7.0188 11.0662L7.26331 11.0094L6.92517 9.55215Z" fill="url(#paint20_linear)"/>
<path d="M4.64099 3.34219L4.39648 3.39893L4.73462 4.85621L4.97913 4.79948L4.64099 3.34219Z" fill="url(#paint21_linear)"/>
<path d="M5.06872 5.18423L4.82422 5.24097L5.00708 6.02903L5.25158 5.9723L5.06872 5.18423Z" fill="url(#paint22_linear)"/>
<path d="M5.37241 6.49005L5.12793 6.54688L5.46682 8.00501L5.7113 7.94819L5.37241 6.49005Z" fill="url(#paint23_linear)"/>
<path d="M5.80114 8.33218L5.55664 8.38892L5.7395 9.17698L5.984 9.12025L5.80114 8.33218Z" fill="url(#paint24_linear)"/>
<path d="M6.10386 9.63825L5.85938 9.69507L6.19826 11.1532L6.44275 11.0964L6.10386 9.63825Z" fill="url(#paint25_linear)"/>
<defs>
<linearGradient id="paint0_linear" x1="9.15479" y1="176.495" x2="9.15479" y2="-192.792" gradientUnits="userSpaceOnUse">
<stop stop-color="#0C2667"/>
<stop offset="0.511" stop-color="#D9000D"/>
<stop offset="0.994" stop-color="#E54813"/>
</linearGradient>
<linearGradient id="paint1_linear" x1="12.6669" y1="177.779" x2="12.6669" y2="-194.509" gradientUnits="userSpaceOnUse">
<stop stop-color="#0C2667"/>
<stop offset="0.511" stop-color="#D9000D"/>
<stop offset="0.994" stop-color="#E54813"/>
</linearGradient>
<linearGradient id="paint2_linear" x1="5.64444" y1="176.446" x2="5.64444" y2="-192.733" gradientUnits="userSpaceOnUse">
<stop stop-color="#0C2667"/>
<stop offset="0.511" stop-color="#D9000D"/>
<stop offset="0.994" stop-color="#E54813"/>
</linearGradient>
<linearGradient id="paint3_linear" x1="5.16172" y1="176.292" x2="5.16172" y2="-192.568" gradientUnits="userSpaceOnUse">
<stop stop-color="#0C2667"/>
<stop offset="0.511" stop-color="#D9000D"/>
<stop offset="0.994" stop-color="#E54813"/>
</linearGradient>
<linearGradient id="paint4_linear" x1="45.9126" y1="171.968" x2="-37.5358" y2="-187.672" gradientUnits="userSpaceOnUse">
<stop stop-color="#0C2667"/>
<stop offset="0.511" stop-color="#D9000D"/>
<stop offset="0.994" stop-color="#E54813"/>
</linearGradient>
<linearGradient id="paint5_linear" x1="46.0885" y1="171.978" x2="-37.7146" y2="-187.6" gradientUnits="userSpaceOnUse">
<stop stop-color="#0C2667"/>
<stop offset="0.511" stop-color="#D9000D"/>
<stop offset="0.994" stop-color="#E54813"/>
</linearGradient>
<linearGradient id="paint6_linear" x1="7.51074" y1="176.533" x2="7.51074" y2="-192.843" gradientUnits="userSpaceOnUse">
<stop stop-color="#0C2667"/>
<stop offset="0.511" stop-color="#D9000D"/>
<stop offset="0.994" stop-color="#E54813"/>
</linearGradient>
<linearGradient id="paint7_linear" x1="46.1074" y1="172.062" x2="-37.6957" y2="-187.517" gradientUnits="userSpaceOnUse">
<stop stop-color="#0C2667"/>
<stop offset="0.511" stop-color="#D9000D"/>
<stop offset="0.994" stop-color="#E54813"/>
</linearGradient>
<linearGradient id="paint8_linear" x1="8.24316" y1="176.532" x2="8.24316" y2="-192.851" gradientUnits="userSpaceOnUse">
<stop stop-color="#0C2667"/>
<stop offset="0.511" stop-color="#D9000D"/>
<stop offset="0.994" stop-color="#E54813"/>
</linearGradient>
<linearGradient id="paint9_linear" x1="46.1244" y1="172.144" x2="-37.6786" y2="-187.433" gradientUnits="userSpaceOnUse">
<stop stop-color="#0C2667"/>
<stop offset="0.511" stop-color="#D9000D"/>
<stop offset="0.994" stop-color="#E54813"/>
</linearGradient>
<linearGradient id="paint10_linear" x1="45.2061" y1="171.979" x2="-38.2423" y2="-187.662" gradientUnits="userSpaceOnUse">
<stop stop-color="#0C2667"/>
<stop offset="0.511" stop-color="#D9000D"/>
<stop offset="0.994" stop-color="#E54813"/>
</linearGradient>
<linearGradient id="paint11_linear" x1="45.3805" y1="171.988" x2="-38.4224" y2="-187.589" gradientUnits="userSpaceOnUse">
<stop stop-color="#0C2667"/>
<stop offset="0.511" stop-color="#D9000D"/>
<stop offset="0.994" stop-color="#E54813"/>
</linearGradient>
<linearGradient id="paint12_linear" x1="45.3021" y1="172.108" x2="-38.3064" y2="-187.633" gradientUnits="userSpaceOnUse">
<stop stop-color="#0C2667"/>
<stop offset="0.511" stop-color="#D9000D"/>
<stop offset="0.994" stop-color="#E54813"/>
</linearGradient>
<linearGradient id="paint13_linear" x1="45.2377" y1="172.109" x2="-38.215" y2="-187.55" gradientUnits="userSpaceOnUse">
<stop stop-color="#0C2667"/>
<stop offset="0.511" stop-color="#D9000D"/>
<stop offset="0.994" stop-color="#E54813"/>
</linearGradient>
<linearGradient id="paint14_linear" x1="45.3209" y1="172.189" x2="-38.2877" y2="-187.552" gradientUnits="userSpaceOnUse">
<stop stop-color="#0C2667"/>
<stop offset="0.511" stop-color="#D9000D"/>
<stop offset="0.994" stop-color="#E54813"/>
</linearGradient>
<linearGradient id="paint15_linear" x1="45.4176" y1="172.155" x2="-38.3856" y2="-187.423" gradientUnits="userSpaceOnUse">
<stop stop-color="#0C2667"/>
<stop offset="0.511" stop-color="#D9000D"/>
<stop offset="0.994" stop-color="#E54813"/>
</linearGradient>
<linearGradient id="paint16_linear" x1="44.5577" y1="172.033" x2="-39.0505" y2="-187.707" gradientUnits="userSpaceOnUse">
<stop stop-color="#0C2667"/>
<stop offset="0.511" stop-color="#D9000D"/>
<stop offset="0.994" stop-color="#E54813"/>
</linearGradient>
<linearGradient id="paint17_linear" x1="44.4953" y1="172.035" x2="-38.9575" y2="-187.624" gradientUnits="userSpaceOnUse">
<stop stop-color="#0C2667"/>
<stop offset="0.511" stop-color="#D9000D"/>
<stop offset="0.994" stop-color="#E54813"/>
</linearGradient>
<linearGradient id="paint18_linear" x1="44.5029" y1="172.069" x2="-38.9455" y2="-187.571" gradientUnits="userSpaceOnUse">
<stop stop-color="#0C2667"/>
<stop offset="0.511" stop-color="#D9000D"/>
<stop offset="0.994" stop-color="#E54813"/>
</linearGradient>
<linearGradient id="paint19_linear" x1="44.5263" y1="172.16" x2="-38.9485" y2="-187.594" gradientUnits="userSpaceOnUse">
<stop stop-color="#0C2667"/>
<stop offset="0.511" stop-color="#D9000D"/>
<stop offset="0.994" stop-color="#E54813"/>
</linearGradient>
<linearGradient id="paint20_linear" x1="44.5248" y1="172.151" x2="-38.9236" y2="-187.49" gradientUnits="userSpaceOnUse">
<stop stop-color="#0C2667"/>
<stop offset="0.511" stop-color="#D9000D"/>
<stop offset="0.994" stop-color="#E54813"/>
</linearGradient>
<linearGradient id="paint21_linear" x1="43.6439" y1="171.989" x2="-39.8045" y2="-187.652" gradientUnits="userSpaceOnUse">
<stop stop-color="#0C2667"/>
<stop offset="0.511" stop-color="#D9000D"/>
<stop offset="0.994" stop-color="#E54813"/>
</linearGradient>
<linearGradient id="paint22_linear" x1="43.6657" y1="172.081" x2="-39.8091" y2="-187.673" gradientUnits="userSpaceOnUse">
<stop stop-color="#0C2667"/>
<stop offset="0.511" stop-color="#D9000D"/>
<stop offset="0.994" stop-color="#E54813"/>
</linearGradient>
<linearGradient id="paint23_linear" x1="43.7378" y1="172.118" x2="-39.8707" y2="-187.624" gradientUnits="userSpaceOnUse">
<stop stop-color="#0C2667"/>
<stop offset="0.511" stop-color="#D9000D"/>
<stop offset="0.994" stop-color="#E54813"/>
</linearGradient>
<linearGradient id="paint24_linear" x1="43.6864" y1="172.162" x2="-39.7884" y2="-187.592" gradientUnits="userSpaceOnUse">
<stop stop-color="#0C2667"/>
<stop offset="0.511" stop-color="#D9000D"/>
<stop offset="0.994" stop-color="#E54813"/>
</linearGradient>
<linearGradient id="paint25_linear" x1="43.7562" y1="172.198" x2="-39.852" y2="-187.542" gradientUnits="userSpaceOnUse">
<stop stop-color="#0C2667"/>
<stop offset="0.511" stop-color="#D9000D"/>
<stop offset="0.994" stop-color="#E54813"/>
</linearGradient>
</defs>
</svg>
