<svg width="17" height="17" viewBox="0 0 17 17" fill="none" xmlns="http://www.w3.org/2000/svg">
<path d="M16.1204 15.749C16.0298 14.2804 15.4539 12.8833 14.4832 11.7776C13.5124 10.6718 12.2018 9.9199 10.7573 9.63989C11.4639 9.21707 12.0491 8.61885 12.4562 7.90308C12.8632 7.1873 13.0782 6.37834 13.0803 5.55493C13.0779 4.28518 12.5726 3.06811 11.6748 2.17017C10.777 1.27222 9.56003 0.766559 8.29028 0.763916C7.02054 0.766559 5.80364 1.27222 4.90588 2.17017C4.00813 3.06811 3.50274 4.28518 3.50037 5.55493C3.5027 6.37842 3.71792 7.18731 4.12512 7.90308C4.53233 8.61884 5.11766 9.21712 5.82434 9.63989C4.37976 9.92015 3.06915 10.6722 2.09814 11.7778C1.12714 12.8835 0.550704 14.2803 0.459351 15.749L0.42627 16.28H16.1543L16.1204 15.749Z" fill="#E54813"/>
</svg>
